<?xml version="1.0" encoding="UTF-8"?>
<svg version="1.1" viewBox="0 0 659.33 800.34" xmlns="http://www.w3.org/2000/svg">
 <g transform="translate(-542.49 2683.9)">
  <g transform="matrix(9.4421 0 0 9.4421 -922.73 -3475.4)" fill-rule="evenodd">
   <path class="fil2" d="m186.53 91.089c-1.3441-1.1517-2.2276-3.4431-0.1258-5.3508-0.6284 2.1116-0.4978 3.2951 0.1258 5.3508zm2.0824-0.74c-1.5669-0.7564-2.6141-2.2378-0.2288-3.6116-0.9015 1.3403-0.6278 2.3469 0.2288 3.6116zm2.2992-0.0324c-2.2737-0.4674-2.1995-2.4726-0.437-2.9229-0.8292 1.3602-0.3491 2.141 0.437 2.9229zm8.2279-1.0116c-1.2343 0.2052-1.3373 0.9229-2.4211 1.0194 0 1.3191 1.6336 2.7899 3.313 2.6759 1.5796 0 3.3256-1.1023 4.4333-1.398-0.6087-0.6316-0.5546-0.862-0.738-1.2779h0.6371c4.6355 0 1.8516-0.0941 4.8421-1.5291 0.238 0.3554 0.3823 0.5374 0.3823 1.1469v1.2742c0 2.64-2.379 2.3194-4.7013 2.6892-1.7732 0.2824-4.415 1.1307-6.3558 0.7224-0.8749-0.184-2.001-0.5251-2.7914-0.9039-0.4354-0.2086-0.7852-0.3691-1.1672-0.6167-0.7762-0.503-0.2718-0.6677-0.743-1.1684-0.7811-0.83-1.3564-0.2928-2.2396-1.9116-0.4534-0.8312-1.1396-2.374 1.0101-2.3836 0.5286 0 1.5699-0.0066 1.5699 0.7692v0.1275c0 0.2983-0.2114 0.5097-0.5097 0.5097h-0.3823c0.127 0.5451 0.9115 1.927 1.2474 2.3236 1.02 1.2041 0.2817-1.2469 0.2817-1.8139 0-1.6854 3.6633-1.5195 4.3325-0.2549zm0.7645 0.4337c-0.2272 0.5165-0.3024 0.8071-0.3024 1.3634 0 0.5481 0.1961 0.862 0.3024 1.3181-0.958-0.0714-2.1662-0.1501-2.1662-1.4586 0-0.9348 1.4542-1.2799 2.1662-1.2229zm1.4378 2.1662c-0.6984 0.0282-1.0426-0.258-1.0783-1.0193-0.0389-0.8276 0.3861-1.0756 1.1696-1.0709 0.5808 0 0.8598 0.5125 0.8607 1.0389 8e-4 0.5603-0.2374 1.0225-0.952 1.0513zm-8.701-0.0514c-1.0442 0-1.7235-0.0101-2.2685 0.5349-0.416 0.416-0.4391 1.4983-0.1034 2.198-4.2516 0-3.2962-4.0507-0.0492-3.8797 0.9076 0 1.5281 0.3903 2.4211 1.1468zm-0.5288 0.8867c-0.0823 0.2981-0.3112 0.5918-0.2469 0.8942 0.0742 0.3487 0.2779 0.3853 0.6483 0.3853 0.3827 0 0.6367-0.5097 1.0194-0.5097 0.659 0 1.0084 0.1549 1.1468 0.7646 0.5023 2.2113 0.0171 3.4232-0.835 3.9937-0.4876-1.0163-0.7203-1.6219-1.5523-2.371-0.5418-0.4879-1.5628-1.2028-1.5628-2.1324v-0.2549c0-0.7031 0.6684-0.7645 1.3825-0.7698zm14.714 2.803c-4.8526 0.076-8.8661 2.4394-11.892 4.4655-0.6909-1.4399 0.5097-2.6668 0.5097-3.9502 0-0.6106-0.1203-1.1035-0.2548-1.6811 1.3752 0.3204 1.475 0.9354 3.6535 1.3798 0.9826 0.1167 1.6067-0.3701 2.2921-0.634 0.7411-0.2855 1.6241-0.2115 2.5918-0.2115 0.9639-0.6455 2.8962-0.9274 3.0995 0.6315zm-18.265 3.0352c0 0.8111-0.1659 2.1005 0.2991 2.7568 0.9552 1.3483 0.7921 1.3156 1.1916 2.4067-1.4813-0.7107-3.4182-0.8244-3.7607-2.863-0.142-0.8454-9e-3 -2.0079-0.1486-2.9096-0.1358-0.8796-0.6376-1.8373-0.6376-2.5479v-0.1274c0-1.184 0.5861-2.2857 1.1468-2.9308 0 1.8 0.2251 5.0757 1.9094 6.2152zm10.196 1.4303c2.0322 1.0753 4.8578 1.0804 5.9922 3.2504-2.0161-0.3963-2.9449-0.5095-4.4884-1.0914-1.0098-0.3807-3.2878-1.0802-3.2878-2.159 0-1.5594 5.3304-3.5345 7.2632-3.6954-1.189 1.7918-4.3328 1.5288-5.4792 3.6954zm-5.6067-2.0388c-0.5439 0.6257-1.0617 1.1823-2.1662 1.2742-0.1499 1.8017 1.9896 3.9763 4.205 4.205 0.1662-0.4591 0.2449-0.6427 0.8507-0.6427 1.3649 0.228 2.3235 0.9226 4.3016 1.392-1.6441 0.3641-3.3488 1.9266-4.77 1.9266-0.1407 0-0.6367-0.6008-0.7937-0.7354-0.3759-0.3219-0.6819-0.2734-1.1458-0.3833-0.6659-0.1579-1.7943-0.6101-2.093-1.0926-0.571-0.9223-0.7911-0.9683-1.396-1.7895-0.7174-0.9738-0.7504-1.6425-0.7504-2.7772 0-1.5166-0.9672-1.437-1.3392-3.0337-0.3875-0.9991 0.1716-1.1635 0.4282-1.1635 2.3302 0 3.858 1.2877 4.6688 2.8201zm14.269-0.9206c4e-3 0.6438-0.3225 1.2867-0.9057 1.9154-0.3617-0.8962-1.2461-1.9818-1.9122-2.678 0.6676-0.5337 1.2876-0.2316 2.2591-0.4335 0.127 0.4372 0.5037 0.647 0.5588 1.1961zm-31.084 18.073c2.669-0.1717 4.2219 1.1182 4.9637 1.9614l-0.0442-1.3512 1.9422 0.4648c-0.6528-0.7553-0.9931-1.6202-0.5577-3.4693-0.7575-0.9021-2.0307-2.7418-2.0766-4.9311 0.9752-0.1723 1.0639-0.4015 2.3568-0.0657-0.854-1.4595-1.3987-3.4826-0.9681-4.8675 0.2617-0.8417-0.5834-1.8113 0.0472-3.2496 1.4837 0.1417 2.5953 0.3059 3.4841 1.1324l0.0213-1.757c0-1.6226-0.7646-2.4076-0.7646-3.6953v-0.1275c0-1.1201 0.7697-2.7036 1.1714-3.4627-1.9343-2.2343-2.3932-5.6447 1.6319-7.878-0.4363 0.9918-0.6447 1.9076-0.5681 2.9184 0.5975-0.7982 1.518-1.5204 2.7045-1.9386-0.5288 0.9435-0.6586 1.811-0.7314 2.7165 0.8074-0.7733 1.6718-1.5086 3.0492-1.9209-0.3171 0.549-0.9001 1.041-0.8941 1.647 0.4035-0.2199 0.9275-0.3642 1.5369-0.3642 0.9834 0 1.7231 0.2948 2.2936 1.1468 1.3353-0.7066 4.7115-0.5511 4.8422 1.0194 0.3985-0.0332 0.4526-0.1275 0.8919-0.1275h0.1275c0.9621 0 1.8853 0.7646 2.2936 0.7646 1.1504 0 1.5154-0.198 2.5757-0.0269 1.4651 0.2364 1.3308-0.2532 1.9103-0.8389 1.2162-1.2292 2.7772-0.8827 2.7772 1.2481v1.0194c0 1.6274-1.2089 3.313-2.8034 3.313h-0.5097l0.2564 0.5087c-1e-3 1.3614 0.5082 1.2979 0.5082 2.0398 0 1.208-0.6497 1.8047-1.3102 2.4598-0.6927-1.0304-1.262-2.0377-1.7936-2.4276-0.7843 0.3867-1.5686 0.7735-2.3528 1.1602l-0.0227 0.2093c0.8249 0.2202 1.4441 1.3364 1.6074 2.3427 0.0814 0.5948 0.0633 1.3513 0.9187 0.9842 0.5495-0.2359 1.643-0.8422 1.5183-1.7107l0.3812 0.2076c1.5009 0.8933 0.5071 3.3981-0.1614 3.6345 0.2477 0.2195 0.4346 0.6938 0.1636 1.0005-0.4932 0.558-1.1203 0.4824-1.1203 0.8613 0 2.6847 1.8188 4.5508 4.1076 6.2482 0.9603 0.9091-0.0136 1.03 0.8337 1.8838 0.6542 0.6592 1.4646 1.4936 2.2229 2.0013 1.2943-0.2476 2.0008 0.5377 2.0008 1.8692 1.389 0.9873 2.3546 3.0219 2.3546 4.7225 0 0.6969-0.7572 1.9003-1.5862 1.5025 2.0416 2.3578 3.2806 6.7045-0.4504 9.6442-0.8405 1.2387 0.0594 0.8782 0.3952 3.8911 0.2228 1.2788 0.3306 3.8387 0.3889 5.3319 0.1704 4.3661-1.2203 11.707 2.8356 14.377 2.0947 1.338 6.2713 1.7678 6.2713 5.0481 0 0.7821-0.6064 1.1467-1.4016 1.1467h-4.3325c-2.9197 0-5.4823-0.3404-8.2874-0.3773-0.74-0.01-3.2222-0.4015-3.6018-0.7306-0.6358-0.5515-1.6177-1.6119-1.6177-2.7148 0-1.3928 0.9173-1.3068 1.1468-2.1662-0.7294 0-1.5618-0.2589-2.0377-0.5107-0.5625-0.2978-1.2268-1.0651-1.5358-1.2503 0.4295-0.1832 0.9777-0.5044 1.1455-0.7638-1.0914-0.3471-1.9702-1.3207-2.7894-3.2878 0.1194 0.0271 0.4448 0.0868 0.5403 0.0915-0.5102-0.6261-0.8782-1.5768-1.1048-2.2587-0.1716-0.5162-0.6252-1.0014-0.8171-1.3285 0.1009 0.0345 0.4378 0.1494 0.6288 0.178-0.8308-1.2818-2.1849-1.6873-2.1849-4.1218v-0.5097c-0.689-0.2633-1.2497-0.6596-1.6868-1.2414 0.0112 0.8089-0.1188 1.7092-0.4692 2.1436-0.6612 0.8197-1.7446 0.8818-2.6861 0.8818 0.6465 3.3837-0.1356 6.2484-2.4728 8.9954-1.6859 1.9816-4.2579 3.747-6.9567 3.747l-1.1141 0.4728c0.8341 0.9504 2.0454 2.5883 3.3241 2.8307 1.4636 0.2776 3.0516-0.8769 4.652-0.8769 0.5829 0 1.8052 0.6149 2.2409 1.735 1.0261 0.234 0.9565 0.7783 1.3194 1.4868-2.2264 0.5186-2.6729 0.7228-5.1979 0.7228h-2.1662c-0.1047 0.9573-1.7331 1.1468-2.8033 1.1468l0.0285 0.3632-0.5382 0.0191v0.3822c-1.4422 0.336-6.1128 1.9762-7.3906 2.1662-1.6839 0.2504-4.4598-1.3408-4.4598-3.313 0-0.4678 0.0871-1.1725 0.5097-1.4016l-0.1062-0.1487c-0.2387 0.2102-0.2426 0.2761-0.6584 0.2761h-0.5097v-0.6372h-0.2548v-0.8919c-0.8057-0.0953-1.6995 0.0762-2.3696-0.3811-0.5094-0.3476-0.8192-1.0721-0.8301-1.4724-0.4599-0.2292-1.3857-0.4169-1.9392-0.6531-0.976-0.4165-2.6366-1.6904-3.1437-1.8258l0.5253-0.3186c-0.2707-0.4015-2.0126-1.1891-2.7163-2.0777-0.2925-0.3694-0.6936-1.1265-0.854-1.5671-0.1985-0.5454-0.1507-1.6433-0.6503-1.6433h-1.1468c0-4.0703-1.6723-4.3015-3.0582-6.3712 0.5918-0.1017 1.1758-0.3382 1.7753-0.3052 1.7724 0.0973 3.0055 1.4257 3.3217 1.452-0.7025-1.464 0.018-3.2736 0.7131-4.5872-3.4155-1.1753-4.6692-7.4392 1.5097-13.182 2.478-2.3033 6.2232-2.2093 10.52-1.9812 2.6267 0.1394 8.0711 0.6955 9.3019-2.0388 0.348-0.7729-0.016-1.4679-0.6448-1.5255-1.0322-0.0945-1.3939 0.6619-1.3939 1.6529v0.7645c-2.9922 0.6972-3.1254-1.0736-4.5724-2.0505 0.0557-0.2848 0.1318-0.4292 0.2239-0.5814-0.7711 0.209-2.4112 1.0607-3.782-1.4703-2.7596 0-3.0726-2.7397-2.6554-4.5632-2.0206-0.0434-3.6131-2.2274-3.6131-4.3318v-1.6565c0.8597 0.0715 2.0417-0.0739 2.9183 0.0391 1.0536 0.1358 1.5212 0.502 2.3061 0.9803-0.6059-1.3537-0.7554-1.5282-2.1981-2.5775 1.4536 0.0495 3.0617 0.7777 3.7314 1.377 1.132 0.6652 3.1411 3.4393 3.9381 4.4811 0.4206 0.5497 0.9441 1.2417 1.6644 1.4341-0.0636-0.2384-0.7196-1.2877-1.9055-2.3437zm27.109-13.839c-1.3899-0.7146-2.0973-1.0209-3.8663-1.5101 0.4295-0.7696 1.0683-1.0493 1.7381-1.1334 1.33-0.167 2.1282 1.2576 2.1282 2.6435zm-10.159-2.9262c0.0631 2.7547 2.9641 3.8383 1.6542 4.6508-1.8697-0.6375-2.799-1.2041-3.4896-3.3923 0.3469-0.0882 1.5189-0.4756 1.8354-1.2585zm13.147 5.9955c0 0.5133-1.0613 0.7347-1.9795 0.5746-1.3738-0.2396-9.513-2.4418-9.513-4.1291 0.0143-0.3621 3e-3 -0.3536 0.028-0.5904 1.7315 0.9162 3.177 1.7493 5.3339 2.4614 0.923 0.3047 1.826 0.5816 2.8181 0.7498 0.7561 0.1282 3.3125 0.2979 3.3125 0.9337zm-21.589-2.8256c0 0.4817-0.5199 0.831-0.7187 1.1278 0.3314 0.247 1.0061 0.3962 1.5385-0.2479 1.0899 0.4455 1.2007 1.2429 0.6177 2.1269 0.8481 0.0704 0.9943-0.5059 1.4103-0.9784 1.8845 0.4528 1.1731 1.4652 1.1863 2.0297 0.5977-0.0474 1.0911-0.6457 1.2043-1.0635 0.9682 0.3166 1.8698 0.395 1.478 1.7971 0.5293-0.057 0.737-0.4245 0.9967-0.9221 0.9317 0.0679 1.8987 0.4829 2.297 1.214l-2.595 0.2794c-3.9424 0.2798-6.2641-0.6266-8.5241-2.8836-1.0939-1.0925-1.8891-2.3615-1.3276-3.8099 0.9473-0.0484 2.3991 0.0811 2.4366 1.3305zm22.324 0.1386c0 0.8903-0.2825 1.7839-1.1468 1.7839-0.7745 0-1.0535-0.8275-1.3523-1.3922 0.7548-0.1758 1.8022-0.7343 1.9798-1.4968 0.3708 0.2932 0.5193 0.5196 0.5193 1.1051zm-6.398 2.8582c0.3118 0 1.2735 0.2942 1.3877 0.357-1.178 0.7482-2.0076 2.0583-2.7793 2.0583-0.7556 0-1.4231-0.6032-2.6319-0.6378 1.606-0.5791 3.0312-1.7775 4.0235-1.7775zm1.9616 0.4863c0.6588 0.3069 1.2124 0.5481 2.2817 0.5584 0.1249 3.6941 2.421 5.2563 4.5053 6.9091-3.8187-0.085-6.8105-3.3818-6.787-7.4675zm-20.383-1.7029c-0.4895 7.8548 9.8436 8.4124 15.967 6.7727 1.1832-0.3169 2.1079-0.9945 3.2191-0.637-3.2514-2.2532-3.8175-2.6251-6.7756-2.2045-6.416 0.9122-9.4204-0.4108-12.41-3.9312zm19.836 2.1421c0.0177 0.6855 0.209 1.8585 0.4096 2.3266 0.2387 0.5571 0.6331 1.2224 0.7506 1.6625-1.6594-0.0369-3.3941-1.3927-3.522-2.1472 1.2407-0.6153 2.3607-1.8856 2.3618-1.8419zm-19.035 7.7826c-0.4883 3.7737 5.7007 5.1603 8.8353 5.0717 5.736-0.1621 9.2517-4.1896 14.61-4.1996 1.0521-2e-3 2.3422 0.1316 3.3756 0.5588-2.1547-1.7337-3.9038-1.7705-5.3518-1.7705-3.0508 0-8.6263 2.4738-11.136 2.9555-3.338 0.6407-6.2404 0.339-8.8223-1.4006-0.552-0.3719-1.0573-0.7662-1.5118-1.2153zm11.943 0.1243c0.9009-0.3531 0.946-1.3113 1.0955-2.0314 1.6029-0.378 1.7163-0.5978 1.48 1.3683 1.0917-0.681 1.0142-1.3355 1.0551-1.9283 1.0013-0.2532 1.8024 0.1027 1.5219 1.2534 0.9697-0.1661 0.905-1.117 0.8644-1.6655 1.1402-0.1335 1.4585 0.0798 1.4006 1.1245 0.7355 0.0528 0.7744-0.8127 0.8674-1.3256 0.7374 0 1.2244 1.3101 1.2418 2.0902-5.3963 0-8.7832 3.1856-14.526 3.1856-2.9298 0-4.7815-1.0215-6.2754-2.5168-1.2263-1.2275-2.4174-2.7123-2.6009-4.6201 1.0116-0.3041 1.4574-0.1947 2.0411 0.1417 1.0734 0.6188 0.7721 1.3192-0.0171 2.0694 0.851 0.2275 1.1497-0.1806 1.7806-0.7966 2.4647 0.7319 1.0119 1.8908 0.4845 2.6785 0.6471-0.0379 1.3095-0.019 2.1995-1.4651 1.4458 0.2642 1.2768 1.0984 0.9366 2.5976 0.8725-0.3371 1.3664-1.03 1.4096-2.0065 1.8755-0.067 1.97 0.9993 1.723 2.2614 0.6765-0.2662 1.39-0.9004 1.3076-2.1031 2.2533-0.63 2.0272 0.9757 2.0106 1.6884zm0.174 5.9706c4.3857-1.3495 10.21-4.2593 12.945-4.2303-3.2935-1.8434-9.5341 3.5564-15.953 3.8987-2.5709 0-4.3068-0.4571-6.4092-1.3522 0.8218 1.2273 3.6307 2.1168 5.7721 2.1168h0.2549c1.2579 0 2.2989-0.1972 3.3897-0.433zm3.5425 1.6026c0.552-2.3525-1.2371-1.8176-2.3477-1.3009 0.3001 1.0134-0.1342 2.358-1.9086 2.8072 1.3162-2.2185 0.6463-2.6167-1.4707-2.1176-0.5746 0.8302-0.8926 2.3415-2.8141 2.1649 0.63-0.3704 2.5954-2.2082-0.6975-2.2079-1.0241 1.1969-1.813 1.5253-3.1158 1.221 2.436-1.8497 2.0034-1.7522 0.28-2.4105-1.7134 0.761-2.2571 1.2557-3.235 0.3486 3.7595-1.5318 1.656-1.7261-1.4345-2.7326-0.0143 0.6445-0.2549 1.2491-0.2549 1.9114 0 2.5287 3.2003 4.6558 5.1358 5.4404 8.0302 3.2555 15.633-6.425 23.86-6.0586 2.3921 0.1065 4.8063 1.836 4.8611 5.2642 0.5514 0.2436 0.9299-0.2381 0.9299-1.0781 0-1.406-1.2688-3.8092-2.421-4.0776 0-0.6847 0.2584-1.5736-0.7645-1.6565-0.7444-0.0604-0.3377 1.0848-1.7079 0.8919 0.1157-0.3032 0.3025-0.6538 0.3376-0.9764 0.0541-0.497-0.6632-0.9026-1.4958-0.8835 0 0.8383-0.2215 1.2691-1.0251 1.6944 0-1.9093-0.5795-1.7373-2.1771-1.4094 0.1127 1.3539-0.5377 2.0253-1.0675 2.0253 0.5133-2.3453-1.1828-1.371-2.6588-0.9763-0.0314 1.2374-0.0779 1.841-1.2154 2.4429 0.6114-2.4977-1.182-1.5546-2.6342-1.0524 0.3679 0.7642 0.3129 2.4026-0.9583 2.7261zm16.259 2.908c-0.3695-0.3109-0.9672-0.5952-1.5078-0.6371-1.183-0.0919-1.7091 0.3237-2.4001-0.4246-0.7935-0.8593-0.2685-2.1239 0.8497-2.1239 1.9117 0 3.0582 1.2405 3.0582 3.1856zm-2.7844 7.5727c0-1.4795 2.0995-2.3714 1.2821-4.2217-0.9327-2.1115-4.519-1.5709-4.519-2.9632 0-0.5093 0.4022-1.2752 1.1824-1.2569 0.6678 0.0156 0.9663 0.4524 1.0162 0.9965 2.7642-0.3045 4.5663 0.4745 5.3239 2.788 0.8612 2.6298 0.0171 6.0914-2.8213 6.0914-0.7776 0-1.4643-0.7161-1.4643-1.4341zm-2.4892-2.4568c1.2476 0 1.8433-1.2854 2.3218-2.351 0.5743 0.232 1.2532 0.8782 0.9398 1.7337-1.4048 3.8345-5.0671 2.8245-6.0325-0.9776 0.4976 0.722 1.654 1.5949 2.7709 1.5949zm1.6974-2.6361c-1.3398 3.7835-3.8402 0.9165-4.9612-0.0588 0.5117 2.782-2.0263 3.014-2.5543 0.6181-1.2166-0.0271-2.451-1.1264-1.9566-2.9483 0.0861 0.3754 0.3432 0.8832 0.7814 1.0976 2.0118 0.9841 2.7517-1.5598 4.5334-2.7144 0.8753-0.5672 2.7137-0.8962 2.9752-0.0355-1.3026 0.1701-1.8924 0.9643-1.8544 1.8487 0 1.1071 0.3716 1.308 3.0365 2.1926zm-25.236-1.6718c0.802 0.4329 1.2431 0.5807 2.4062 0.7286-1.0244 1.7796-2.7718 2.776-3.8906 3.3267 1.2147-1.4912 1.7222-2.7549 1.4844-4.0553zm14.159 9.6408c-0.4432 0.0253-0.8863-0.5398-1.5291-0.5098 1.6104 1.65 2.3556 2.0294 2.7578 4.1231 0.0603 0.3136 0.0943 0.5538 0.1148 0.7454-0.2492-0.1984-1.06-0.5917-0.9859-0.4914 1.1915 1.6154 2.4497 2.981 2.5731 5.1663-0.4143-0.2633-0.4373-0.3245-1.4853-0.4071 1.0518 0.5355 3.1094 2.898 3.1159 4.6429l-0.9856-0.2833c0.6533 0.6715 1.8633 1.6435 1.9027 3.455l-1.089-0.4103c1.2708 1.1047 1.6169 1.7127 2.3954 3.3666l-0.9394-0.4437c1.1659 1.8568 2.2944 3.342 5.2382 4.5896-1.7975 1.1796-3.5786-0.0646-4.2027-1.2441-2.0551 0-1.8893-0.673-3.0018-1.0289l1.4727-0.8825c-1.2257-0.102-2.7341-1.2581-2.8541-2.4619 0.3503 0.0379 0.5654 0.1045 1.0667 0.2007-1.889-1.134-1.7401-1.98-2.5971-3.7189 0.5943 0.0911 0.7325 0.2383 1.3263 0.5192-0.5821-0.7905-0.8454-0.9594-1.054-1.1269-1.7743-1.4248-2.0902-2.3912-2.0668-4.0368 0.521 0.069 0.7239 0.1427 1.2307 0.4497-2.4756-2.8267-3.771-2.0429-4.2597-4.9807 0.4455 0.1038 1.7369 0.604 2.5462 1.1167-1.2343-1.748-1.4919-1.6824-2.2184-2.0055-1.0213-0.4419-1.9455-1.9661-2.1044-3.7455 0.9739 0.1101 1.0477 0.2873 2.7332 1.1122-2.2979-2.7278-2.1677-1.4187-3.3385-2.6009-0.8414-0.8495-1.2913-2.4367-1.2913-4.0921 1.5058 0.7224 3.3295 0.2634 5.0231 1.2454 1.5018 0.8707 2.0713 1.8706 2.5063 3.7375zm0.654-2.3447c0.9037-2.458 3.5147-0.8016 3.5378 1.0517 0.0153 1.2388-0.9967 1.945-1.9144 1.1214-0.3317-0.2977-0.8438-2.2279 0.8924-2.0279-1.0792-1.4455-2.0465 0.1767-1.5722 1.5491 2.0049 5.8011 5.3533 16.876 7.2689 20.199 1.085 1.8823 1.6588 2.5086 7.0015 2.3416 0.3331 0.4975 0.5902 0.767 1.0564 1.1504-1.5616 0.1714-2.8421 0.0227-3.6723 0.0227-3.1397 0-5.057-1.7915-6.0053-4.3161-1.9621-5.224-3.5979-10.481-5.3503-15.737-1.0549-2.8601-1.6869-4.1462-1.2425-5.355zm-27.413 8.9707v0.1274c0 0.8668-0.6286 1.8192-1.1468 2.1662-0.2205-0.8256-1.8001-2.1793-2.5082-2.554 0.0828-0.9953 1.1883-1.4118 2.5193-1.9628 0.4629 0.627 1.1357 1.66 1.1357 2.2232zm-0.4479-2.5628c5.646-3.1853 12.001-1.3112 15.378 1.7772 1.8935 1.4149 3.4807 3.0549 4.173 5.1745 1.8696 5.7239-3.7484 12.444-10.047 12.444-3.9096 0-5.3108-1.4992-8.164-3.199 0 3.7594 1.6241 3.7753 2.0119 5.2277-2.9602-1.102-6.3431-2.8629-8.0503-5.6775 1.2386-0.6645 2.5342-4.4461-3.0087-4.3923-1.202-0.8049-2.638-2.0146-4.4599-2.1662-0.6606-2.1125 0.0575-3.2791 1.0194-5.097-0.9337-0.448-2.3736-0.6567-3.0582-2.9308-0.8032-3.5813 1.797-7.3776 3.677-9.2575 4.2356-4.2356 11.728-0.7406 17.115-2.3274 4.3069-1.2686 3.9524-4.2982 1.2047-5.8861-3.0289-1.7504-6.7317-1.258-9.5095-3.9362 0.9144 3.2399 8.0731 2.4341 10.066 5.097-1.4342 0.0319-1.9693 1.2477-2.0008 2.6624-1.2086 0.2893-2.2944-0.2298-3.2291-1.7895 0.3742-0.3965 1.1523-0.5149 1.1523-1.2552v-0.3823c-1.4058 0.3544-3.6718 2.4795-4.9695-0.892-3.4285 0-2.0556-2.0929-2.5809-4.4542-1.8183 0-3.2806-1.7975-3.2806-3.5735v-0.8919h0.7645c1.8347 0 4.004 0.7563 4.3325 2.1662 0.6457-0.4905 0.4579-1.7964 0.1274-2.4211 1.2056 0.3219 2.5508 2.1339 3.2781 3.0931 1.1684 1.541 1.5903 2.0932 3.3479 3.0232 0.9786-0.6552 0.2859-1.7506-0.3785-2.328 1.7159 0 3.0551 1.9521 3.1819 3.4749-4.9845 0-8.53-0.5982-11.468-3.8228 1.9606 3.9836 8.3608 4.3699 11.533 4.274 0.7762 1.5953 2.0112 2.9904 4.1402 4.136 0 4.0183-2.9471 5.5911-6.5513 6.3187-8.6972 1.1542-12.11-1.3678-15.067 1.7623-1.5555 1.6466-0.8834 4.8119 1.8484 4.8727-2.0843 1.9329-4.1123 2.8546-4.3973 0.6784 0.057-1.1556 0.3538-1.8665 1.6208-2.2667-4.3766 0.7022-2.242 7.7109 3.1607 2.0113 0.8417-0.8879 1.7296-1.7798 2.5983-2.5128 4.4114-3.7225 10.144-3.1866 15.17-5.2174 1.221-0.4933 2.3506-1.0521 3.2972-1.7998 0.929-0.7339 2.0941-1.7991 2.4016-2.6556 8.2222-0.0138 13.196-6.6893 20.652-6.8872 1.5603 1e-4 3.6917 0.5356 4.5548 2.847-2.1907-2.1203-4.3067-1.4412-4.7035-0.1006-4.8114-0.19-4.4618 3.5109-6.4282 3.5109-1.0101 0.057-1.3244-0.8368-1.4263-1.5671-1.574 1.054-0.7876 4.0152 1.1881 4.2223 0.7247 1.8134 2.4487 2.2071 3.3959 1.0479 0.7727 2.1481 2.6612 3.4345 4.9348 2.7441 0 1.134 0.4762 1.6689 1.4865 2.2088 0.8597 0.4593 0.9111 0.9372 1.2131 1.9478 0.9598 3.2117 0.8196 8.3891 0.8246 11.899-0.0745 2.4449-0.4674 4.5938 0.66 8.1589-3.1593-0.0573-4.7375 0.2012-5.8658-1.8272-2.0947-3.7659-4.3672-11.058-6.5452-18.57 1.3827-0.1331 1.9083-1.482 1.5811-2.6933-0.4284-1.402-1.6576-2.49-3.2939-2.2242-0.7816 0.1754-1.3615 0.8365-1.5057 1.7336-2.8415-3.5859-4.9539-1.9627-8.045-3.4059-0.3055 2.2717 0.1779 4.4012 1.9859 5.99-0.2449 7e-3 -0.6334-0.1151-0.8778-0.2615 0.5429 1.716 1.2918 3.5189 2.7884 4.7167-0.2282-0.0254-0.5835-0.1639-0.7265-0.1901 0.4335 1.2437 0.902 2.8724 0.902 4.2406 0 0.949-0.6799 1.6838-1.6395 1.7098-1.1195-5e-4 -1.3623-0.4415-2.0091-1.2982-0.9919-1.3137-2.0067-2.5083-3.2651-3.5644-2.0465-1.7177-6.1082-3.8555-9.7789-3.8555-3.5164 0-8.7907 1.6677-10.831 4.7146 0 3.1435-2.5128 2.9407-3.1208 3.0874 0 1.8831 1.9922 3.2839 3.6305 3.2839 1.9204 0 2.2023-0.9108 3.5679-1.9114 0.3377 0.4867 0.6755 1.059 1.5517 1.6339 0.8693 0.5704 1.8845 0.9205 2.9081 0.9205 0.4769-1.7863 0.2265-2.1967 1.9127-2.856 1.3434-0.5253 1.5773-1.0005 1.5278-2.3743-0.057-1.5801-1.6723-2.8033-2.9308-2.8033-0.9488 0-1.5945 0.2116-2.3415 0.4618-1.7748 0.5708-1.5363-0.7106-2.3114-1.7504zm0.3126-6.6547c-3.637 1.2376-5.2972 2.3382-7.5101 5.0125-0.9993 0.0457-2.2063-0.4981-2.1149-2.4971 0.1732-3.7892 7.6471-2.5917 9.625-2.5154zm6.2484 12.479c-0.5818-0.4263-0.9103-2.421-2.3261-2.421-0.9637 0-2.2679 2.0011-2.7816 0.1821-0.299-1.0586 1.2035-1.6689 2.8799-1.8711 2.1383-0.2579 3.4817 2.6981 2.2278 4.11zm-7.6366 0.6561c-0.9637 1.3964-2.123 2.0158-3.1666 1.7974-1.8963-0.3967-2.8706-1.6969-2.8289-2.4489 0.9689 0.0995 2.0475-0.3321 2.2622-0.7311 1.1505 0.3428 2.1941 0.5581 2.5141-1.0767l0.479 0.9453c-0.1596 1.1455-0.9711 1.2611-2.1962 1.5465 0.5767 1.4779 1.9129 0.206 2.9364-0.0325zm5.3059-2.4679c1.1625 0 1.0235 1.6294 1.9114 1.8665-0.5285 0.7213-2.3316-0.1413-2.3316 3.0169-0.9885-0.192-1.9575-0.4603-2.875-1.3412-0.4971-0.4771-1.3512-1.6203-1.5334-2.3027 2.0015-0.0445 1.4143-0.5803 3.2124 0.6237-0.0938-0.9215 1.065-1.8632 1.6162-1.8632zm-17.926 5.686c2.6417 0 3.9124 1.6868 4.6792 3.6168 0.6019 2.727 1.4116 3.8482 3.1952 5.3422 3.9521 3.3105 6.2019 3.8761 12.386 4.8028-0.8811 1.3157-1.7581 1.0189-3.4374 1.0162-2.2799-4e-3 -2.3115-0.0564-4.2081 0.3854v-0.5096c0-0.3637 0.5392-0.6961 0.7646-0.892-1.2061 0-3.8227 0.0665-3.8227-1.1469 0-0.3441 0.0608-0.3513 0.1273-0.6371-1.8772-0.0418-3.5171-1.4982-4.5872-1.7839 0.5028-0.6863 1.3656-0.4001 2.1662-0.3823-1.5935-1.3851-2.5715-0.3851-4.0268-1.4524-1.2505-0.9169-1.8172-1.6738-2.217-3.3897 0.7461-0.0621 1.4699-0.3388 2.1662 0.1274-0.3673-1.3756-2.6726-1.4016-3.8227-1.4016 0-2.7814-1.1301-3.5497-2.1662-5.097 1.5931 0 2.2467 0.3498 2.8033 1.4017zm4.3522 1.2978c0.4937 0.4606 0.9303 0.8498 1.4525 1.0819-0.2115 0.1378-0.3801 0.2899-0.506 0.5134-0.2584-0.5318-0.5834-1.0635-0.9465-1.5953zm5.2047 2.7797c0 1.0084-0.7413 1.3058-1.1469 1.9114 3.0087 4.4931 4.6615 4.5207 10.449 7.0083-4.2997 0-13.125-4.5702-13.125-8.41 0-1.2763 0.8078-2.1662 2.0388-2.1662 0.9419 0 1.784 0.7424 1.784 1.6565zm45.488 5.634 3.0555 0.06 0.3872-0.0873c0.912 0 1.7971 0.5955 2.1662 1.1468 1.5574 0 3.6567 0.9066 3.9502 2.1662-2.2976-0.1912-2.4235 1.1982-3.1856 1.4017-0.4674-1.7504-1.2154-2.7563-3.0582-3.1856 0.4677 0.2927 1.0115 0.5044 1.4032 0.878 0.2477 0.2362 0.2868 0.8143 0.1259 1.0333-0.5565-0.0463-0.812-0.2548-1.4017-0.2548-2.3134 0-2.0193 1.2095-2.8033 1.784 0.1464-1.7594 0.1656-2.676-1.9114-2.676 0.4529 0.3937 1.1848 0.5756 1.1848 1.4207 0 0.4674-0.0862 0.8246-0.2928 1.2553-1.3308-0.3101-2.7804-0.8734-4.455-0.8969-1.1241-0.0158-1.5807 0.1698-2.208-0.4679-0.38-0.3861-0.9824-1.1311-0.9824-1.8209 0-0.6879 0.487-0.9872 0.7645-1.4016 0.5648 0.3782 1.743 0.8062 2.7008 0.8062 1.9456 0 2.6443-1.3075 4.5601-1.1612zm-32.818 3.1166c-0.1494 0.0396-1.2889 0.4036-1.3239 0.4036-0.6535 0-2.0329-0.9836-2.2992-1.3813 1.0661-0.0647 3.2279 0.4383 3.6231 0.9777zm37.768 2.067-3.5276-0.113c0.0386-0.4642 0.2798-1.4675 1.3827-1.6575 1.4105 0 1.4044 0.8227 2.1449 1.7705zm3.9715-1.643c0.4966 0 1.0193 0.2719 1.0193 0.7645 0 0.3938-0.3758 0.8445-0.6371 1.0194-0.1506-0.564-0.5681-0.7645-1.2742-0.7645h-0.6371c0.136-0.5096 0.6401-1.0194 1.2742-1.0194h0.2549zm-3.6509 0.6138 0.3442 0.6571-0.3886 3e-3 0.0444-0.6604zm-26.602 1.0671c0.5479-0.3544 0.9532 0.0815 1.2157 0.5935l-2.257 0.3616-2.0885 4e-4c0.0193-0.1991 0.1634-0.793 0.5908-0.9209 0.8848-0.2648 1.4485-0.1056 2.539-0.0346zm-9.6904-0.9307c0 0.8695 0.1227 1.2885-0.832 1.2885-0.6478 0-1.4016-0.7538-1.4016-1.4016v-0.3823c1.5717-0.3661 1.1765-0.2235 2.2336 0.4954zm0.1579-0.3042c-1.7106-1.4869-1.5553-1.7976-4.2069-2.3259-2.0825-0.415-3.635-0.9681-4.0629-3.5188 1.5311 1.7818 5.8738 2.4318 6.7733 2.8471 2.0696 0.9555 2.2118 3.1887 5.3487 3.1887 1.18 0 2.3354-0.9221 3.5545-0.9221 1.0277 0 1.6874 0.8697 2.0547 1.4921l-2.2961-0.0603c-0.747 0.0393-1.2048 0.7349-1.2648 1.4552l-1.4587-0.0286c-0.8435-0.0571-1.6322-0.9073-2.2683-1.1496-1.2969-0.4941-0.9965-0.2961-2.1735-0.9778zm3.5005 2.5953c-0.3804 0.5884-0.6719 0.8503-1.7423 0.6027-0.4118-0.019-1.0669-1.0062-1.0669-1.4574 0.78-0.5455 2.4922-0.0562 2.8092 0.8547zm-4.2355-0.6203c0.3499 0 0.6737-0.0287 1.0156-0.1083 0.0242 0.4101 0.464 1.2809 0.7968 1.5335-1.5026 0.3583-2.7408 0.9859-3.8353 1.394-1.1553 0.4308-2.9519 1.2584-4.4757 1.2584h-0.1275c-1.1083 0-2.2903-1.0809-2.905-1.6822-1.1023-1.0782 0.1305-2.2679 1.2485-2.2679 0.7785 0 0.9735 0.2548 1.6565 0.2548 1.5381 0 3.3573-1.6565 4.0776-1.6565 1.2272 0 0.2814 1.2742 2.5485 1.2742z" fill="#0a0b0c"/>
   <g fill="#f5db13">
    <path class="fil1" d="m186.53 91.089c-1.3441-1.1517-2.2276-3.4431-0.1258-5.3508-0.6284 2.1116-0.4978 3.2951 0.1258 5.3508z"/>
    <path class="fil1" d="m188.61 90.349c-1.5669-0.7564-2.6141-2.2378-0.2288-3.6116-0.9015 1.3403-0.6278 2.3469 0.2288 3.6116z"/>
    <path class="fil1" d="m190.91 90.316c-2.2737-0.4674-2.1995-2.4726-0.437-2.9229-0.8292 1.3602-0.3491 2.141 0.437 2.9229z"/>
    <path class="fil1" d="m199.14 89.305c-1.2343 0.2052-1.3373 0.9229-2.4211 1.0194 0 1.3191 1.6336 2.7899 3.313 2.6759 1.5796 0 3.3256-1.1023 4.4333-1.398-0.6087-0.6316-0.5546-0.862-0.738-1.2779h0.6371c4.6355 0 1.8516-0.0941 4.8421-1.5291 0.238 0.3554 0.3823 0.5374 0.3823 1.1469v1.2742c0 2.64-2.379 2.3194-4.7013 2.6892-1.7732 0.2824-4.415 1.1307-6.3558 0.7224-0.8749-0.184-2.001-0.5251-2.7914-0.9039-0.4354-0.2086-0.7852-0.3691-1.1672-0.6167-0.7762-0.503-0.2718-0.6677-0.743-1.1684-0.7811-0.83-1.3564-0.2928-2.2396-1.9116-0.4534-0.8312-1.1396-2.374 1.0101-2.3836 0.5286 0 1.5699-0.0066 1.5699 0.7692v0.1275c0 0.2983-0.2114 0.5097-0.5097 0.5097h-0.3823c0.127 0.5451 0.9115 1.927 1.2474 2.3236 1.02 1.2041 0.2817-1.2469 0.2817-1.8139 0-1.6854 3.6633-1.5195 4.3325-0.2549z"/>
    <path class="fil1" d="m199.9 89.738c-0.2272 0.5165-0.3024 0.8071-0.3024 1.3634 0 0.5481 0.1961 0.862 0.3024 1.3181-0.958-0.0714-2.1662-0.1501-2.1662-1.4586 0-0.9348 1.4542-1.2799 2.1662-1.2229z"/>
    <path class="fil1" d="m201.34 91.904c-0.6984 0.0282-1.0426-0.258-1.0783-1.0193-0.0389-0.8276 0.3861-1.0756 1.1696-1.0709 0.5808 0 0.8598 0.5125 0.8607 1.0389 8e-4 0.5603-0.2374 1.0225-0.952 1.0513z"/>
    <path class="fil1" d="m192.64 91.853c-1.0442 0-1.7235-0.0101-2.2685 0.5349-0.416 0.416-0.4391 1.4983-0.1034 2.198-4.2516 0-3.2962-4.0507-0.0492-3.8797 0.9076 0 1.5281 0.3903 2.4211 1.1468z"/>
    <path class="fil1" d="m192.11 92.74c-0.0823 0.2981-0.3112 0.5918-0.2469 0.8942 0.0742 0.3487 0.2779 0.3853 0.6483 0.3853 0.3827 0 0.6367-0.5097 1.0194-0.5097 0.659 0 1.0084 0.1549 1.1468 0.7646 0.5023 2.2113 0.0171 3.4232-0.835 3.9937-0.4876-1.0163-0.7203-1.6219-1.5523-2.371-0.5418-0.4879-1.5628-1.2028-1.5628-2.1324v-0.2549c0-0.7031 0.6684-0.7645 1.3825-0.7698z"/>
    <path class="fil1" d="m206.83 95.543c-4.8526 0.076-8.8661 2.4394-11.892 4.4655-0.6909-1.4399 0.5097-2.6668 0.5097-3.9502 0-0.6106-0.1203-1.1035-0.2548-1.6811 1.3752 0.3204 1.475 0.9354 3.6535 1.3798 0.9826 0.1167 1.6067-0.3701 2.2921-0.634 0.7411-0.2855 1.6241-0.2115 2.5918-0.2115 0.9639-0.6455 2.8962-0.9274 3.0995 0.6315z"/>
    <path class="fil1" d="m188.56 98.578c0 0.8111-0.1659 2.1005 0.2991 2.7568 0.9552 1.3483 0.7921 1.3156 1.1916 2.4067-1.4813-0.7107-3.4182-0.8244-3.7607-2.863-0.142-0.8454-9e-3 -2.0079-0.1486-2.9096-0.1358-0.8796-0.6376-1.8373-0.6376-2.5479v-0.1274c0-1.184 0.5861-2.2857 1.1468-2.9308 0 1.8 0.2251 5.0757 1.9094 6.2152z"/>
    <path class="fil1" d="m198.76 100.01c2.0322 1.0753 4.8578 1.0804 5.9922 3.2504-2.0161-0.3963-2.9449-0.5095-4.4884-1.0914-1.0098-0.3807-3.2878-1.0802-3.2878-2.159 0-1.5594 5.3304-3.5345 7.2632-3.6954-1.189 1.7918-4.3328 1.5288-5.4792 3.6954z"/>
    <path class="fil1" d="m193.15 97.97c-0.5439 0.6257-1.0617 1.1823-2.1662 1.2742-0.1499 1.8017 1.9896 3.9763 4.205 4.205 0.1662-0.4591 0.2449-0.6427 0.8507-0.6427 1.3649 0.228 2.3235 0.9226 4.3016 1.392-1.6441 0.3641-3.3488 1.9266-4.77 1.9266-0.1407 0-0.6367-0.6008-0.7937-0.7354-0.3759-0.3219-0.6819-0.2734-1.1458-0.3833-0.6659-0.1579-1.7943-0.6101-2.093-1.0926-0.571-0.9223-0.7911-0.9683-1.396-1.7895-0.7174-0.9738-0.7504-1.6425-0.7504-2.7772 0-1.5166-0.9672-1.437-1.3392-3.0337-0.3875-0.9991 0.1716-1.1635 0.4282-1.1635 2.3302 0 3.858 1.2877 4.6688 2.8201z"/>
    <path class="fil1" d="m207.42 97.049c4e-3 0.6438-0.3225 1.2867-0.9057 1.9154-0.3617-0.8962-1.2461-1.9818-1.9122-2.678 0.6676-0.5337 1.2876-0.2316 2.2591-0.4335 0.127 0.4372 0.5037 0.647 0.5588 1.1961z"/>
    <path class="fil1" d="m203.45 101.28c-1.3899-0.7146-2.0973-1.0209-3.8663-1.5101 0.4295-0.7696 1.0683-1.0493 1.7381-1.1334 1.33-0.167 2.1282 1.2576 2.1282 2.6435z"/>
    <path class="fil1" d="m193.29 98.356c0.0631 2.7547 2.9641 3.8383 1.6542 4.6508-1.8697-0.6375-2.799-1.2041-3.4896-3.3923 0.3469-0.0882 1.5189-0.4756 1.8354-1.2585z"/>
    <path class="fil1" d="m206.43 104.35c0 0.5133-1.0613 0.7347-1.9795 0.5746-1.3738-0.2396-9.513-2.4418-9.513-4.1291 0.0143-0.3621 3e-3 -0.3536 0.028-0.5904 1.7315 0.9162 3.177 1.7493 5.3339 2.4614 0.923 0.3047 1.826 0.5816 2.8181 0.7498 0.7561 0.1282 3.3125 0.2979 3.3125 0.9337z"/>
    <path class="fil1" d="m184.84 101.53c0 0.4817-0.5199 0.831-0.7187 1.1278 0.3314 0.247 1.0061 0.3962 1.5385-0.2479 1.0899 0.4455 1.2007 1.2429 0.6177 2.1269 0.8481 0.0704 0.9943-0.5059 1.4103-0.9784 1.8845 0.4528 1.1731 1.4652 1.1863 2.0297 0.5977-0.0474 1.0911-0.6457 1.2043-1.0635 0.9682 0.3166 1.8698 0.395 1.478 1.7971 0.5293-0.057 0.737-0.4245 0.9967-0.9221 0.9317 0.0679 1.8987 0.4829 2.297 1.214l-2.595 0.2794c-3.9424 0.2798-6.2641-0.6266-8.5241-2.8836-1.0939-1.0925-1.8891-2.3615-1.3276-3.8099 0.9473-0.0484 2.3991 0.0811 2.4366 1.3305z"/>
    <path class="fil1" d="m207.17 101.66c0 0.8903-0.2825 1.7839-1.1468 1.7839-0.7745 0-1.0535-0.8275-1.3523-1.3922 0.7548-0.1758 1.8022-0.7343 1.9798-1.4968 0.3708 0.2932 0.5193 0.5196 0.5193 1.1051z"/>
    <path class="fil1" d="m200.77 104.52c0.3118 0 1.2735 0.2942 1.3877 0.357-1.178 0.7482-2.0076 2.0583-2.7793 2.0583-0.7556 0-1.4231-0.6032-2.6319-0.6378 1.606-0.5791 3.0312-1.7775 4.0235-1.7775z"/>
    <path class="fil1" d="m202.73 105.01c0.6588 0.3069 1.2124 0.5481 2.2817 0.5584 0.1249 3.6941 2.421 5.2563 4.5053 6.9091-3.8187-0.085-6.8105-3.3818-6.787-7.4675z"/>
    <path class="fil1" d="m182.35 103.31c-0.4895 7.8548 9.8436 8.4124 15.967 6.7727 1.1832-0.3169 2.1079-0.9945 3.2191-0.637-3.2514-2.2532-3.8175-2.6251-6.7756-2.2045-6.416 0.9122-9.4204-0.4108-12.41-3.9312z"/>
    <path class="fil1" d="m202.19 105.45c0.0177 0.6855 0.209 1.8585 0.4096 2.3266 0.2387 0.5571 0.6331 1.2224 0.7506 1.6625-1.6594-0.0369-3.3941-1.3927-3.522-2.1472 1.2407-0.6153 2.3607-1.8856 2.3618-1.8419z"/>
    <path class="fil1" d="m183.15 113.23c-0.4883 3.7737 5.7007 5.1603 8.8353 5.0717 5.736-0.1621 9.2517-4.1896 14.61-4.1996 1.0521-2e-3 2.3422 0.1316 3.3756 0.5588-2.1547-1.7337-3.9038-1.7705-5.3518-1.7705-3.0508 0-8.6263 2.4738-11.136 2.9555-3.338 0.6407-6.2404 0.339-8.8223-1.4006-0.552-0.3719-1.0573-0.7662-1.5118-1.2153z"/>
    <path class="fil1" d="m195.09 113.36c0.9009-0.3531 0.946-1.3113 1.0955-2.0314 1.6029-0.378 1.7163-0.5978 1.48 1.3683 1.0917-0.681 1.0142-1.3355 1.0551-1.9283 1.0013-0.2532 1.8024 0.1027 1.5219 1.2534 0.9697-0.1661 0.905-1.117 0.8644-1.6655 1.1402-0.1335 1.4585 0.0798 1.4006 1.1245 0.7355 0.0528 0.7744-0.8127 0.8674-1.3256 0.7374 0 1.2244 1.3101 1.2418 2.0902-5.3963 0-8.7832 3.1856-14.526 3.1856-2.9298 0-4.7815-1.0215-6.2754-2.5168-1.2263-1.2275-2.4174-2.7123-2.6009-4.6201 1.0116-0.3041 1.4574-0.1947 2.0411 0.1417 1.0734 0.6188 0.7721 1.3192-0.0171 2.0694 0.851 0.2275 1.1497-0.1806 1.7806-0.7966 2.4647 0.7319 1.0119 1.8908 0.4845 2.6785 0.6471-0.0379 1.3095-0.019 2.1995-1.4651 1.4458 0.2642 1.2768 1.0984 0.9366 2.5976 0.8725-0.3371 1.3664-1.03 1.4096-2.0065 1.8755-0.067 1.97 0.9993 1.723 2.2614 0.6765-0.2662 1.39-0.9004 1.3076-2.1031 2.2533-0.63 2.0272 0.9757 2.0106 1.6884z"/>
    <path class="fil1" d="m195.27 119.33c4.3857-1.3495 10.21-4.2593 12.945-4.2303-3.2935-1.8434-9.5341 3.5564-15.953 3.8987-2.5709 0-4.3068-0.4571-6.4092-1.3522 0.8218 1.2273 3.6307 2.1168 5.7721 2.1168h0.2549c1.2579 0 2.2989-0.1972 3.3897-0.433z"/>
    <path class="fil1" d="m198.81 120.93c0.552-2.3525-1.2371-1.8176-2.3477-1.3009 0.3001 1.0134-0.1342 2.358-1.9086 2.8072 1.3162-2.2185 0.6463-2.6167-1.4707-2.1176-0.5746 0.8302-0.8926 2.3415-2.8141 2.1649 0.63-0.3704 2.5954-2.2082-0.6975-2.2079-1.0241 1.1969-1.813 1.5253-3.1158 1.221 2.436-1.8497 2.0034-1.7522 0.28-2.4105-1.7134 0.761-2.2571 1.2557-3.235 0.3486 3.7595-1.5318 1.656-1.7261-1.4345-2.7326-0.0143 0.6445-0.2549 1.2491-0.2549 1.9114 0 2.5287 3.2003 4.6558 5.1358 5.4404 8.0302 3.2555 15.633-6.425 23.86-6.0586 2.3921 0.1065 4.8063 1.836 4.8611 5.2642 0.5514 0.2436 0.9299-0.2381 0.9299-1.0781 0-1.406-1.2688-3.8092-2.421-4.0776 0-0.6847 0.2584-1.5736-0.7645-1.6565-0.7444-0.0604-0.3377 1.0848-1.7079 0.8919 0.1157-0.3032 0.3025-0.6538 0.3376-0.9764 0.0541-0.497-0.6632-0.9026-1.4958-0.8835 0 0.8383-0.2215 1.2691-1.0251 1.6944 0-1.9093-0.5795-1.7373-2.1771-1.4094 0.1127 1.3539-0.5377 2.0253-1.0675 2.0253 0.5133-2.3453-1.1828-1.371-2.6588-0.9763-0.0314 1.2374-0.0779 1.841-1.2154 2.4429 0.6114-2.4977-1.182-1.5546-2.6342-1.0524 0.3679 0.7642 0.3129 2.4026-0.9583 2.7261z"/>
    <path class="fil1" d="m215.07 123.84c-0.3695-0.3109-0.9672-0.5952-1.5078-0.6371-1.183-0.0919-1.7091 0.3237-2.4001-0.4246-0.7935-0.8593-0.2685-2.1239 0.8497-2.1239 1.9117 0 3.0582 1.2405 3.0582 3.1856z"/>
    <path class="fil1" d="m212.28 131.41c0-1.4795 2.0995-2.3714 1.2821-4.2217-0.9327-2.1115-4.519-1.5709-4.519-2.9632 0-0.5093 0.4022-1.2752 1.1824-1.2569 0.6678 0.0156 0.9663 0.4524 1.0162 0.9965 2.7642-0.3045 4.5663 0.4745 5.3239 2.788 0.8612 2.6298 0.0171 6.0914-2.8213 6.0914-0.7776 0-1.4643-0.7161-1.4643-1.4341z"/>
    <path class="fil1" d="m209.8 128.95c1.2476 0 1.8433-1.2854 2.3218-2.351 0.5743 0.232 1.2532 0.8782 0.9398 1.7337-1.4048 3.8345-5.0671 2.8245-6.0325-0.9776 0.4976 0.722 1.654 1.5949 2.7709 1.5949z"/>
    <path class="fil1" d="m211.49 126.32c-1.3398 3.7835-3.8402 0.9165-4.9612-0.0588 0.5117 2.782-2.0263 3.014-2.5543 0.6181-1.2166-0.0271-2.451-1.1264-1.9566-2.9483 0.0861 0.3754 0.3432 0.8832 0.7814 1.0976 2.0118 0.9841 2.7517-1.5598 4.5334-2.7144 0.8753-0.5672 2.7137-0.8962 2.9752-0.0355-1.3026 0.1701-1.8924 0.9643-1.8544 1.8487 0 1.1071 0.3716 1.308 3.0365 2.1926z"/>
    <path class="fil1" d="m200.42 134.28c-0.4432 0.0253-0.8863-0.5398-1.5291-0.5098 1.6104 1.65 2.3556 2.0294 2.7578 4.1231 0.0603 0.3136 0.0943 0.5538 0.1148 0.7454-0.2492-0.1984-1.06-0.5917-0.9859-0.4914 1.1915 1.6154 2.4497 2.981 2.5731 5.1663-0.4143-0.2633-0.4373-0.3245-1.4853-0.4071 1.0518 0.5355 3.1094 2.898 3.1159 4.6429l-0.9856-0.2833c0.6533 0.6715 1.8633 1.6435 1.9027 3.455l-1.089-0.4103c1.2708 1.1047 1.6169 1.7127 2.3954 3.3666l-0.9394-0.4437c1.1659 1.8568 2.2944 3.342 5.2382 4.5896-1.7975 1.1796-3.5786-0.0646-4.2027-1.2441-2.0551 0-1.8893-0.673-3.0018-1.0289l1.4727-0.8825c-1.2257-0.102-2.7341-1.2581-2.8541-2.4619 0.3503 0.0379 0.5654 0.1045 1.0667 0.2007-1.889-1.134-1.7401-1.98-2.5971-3.7189 0.5943 0.0911 0.7325 0.2383 1.3263 0.5192-0.5821-0.7905-0.8454-0.9594-1.054-1.1269-1.7743-1.4248-2.0902-2.3912-2.0668-4.0368 0.521 0.069 0.7239 0.1427 1.2307 0.4497-2.4756-2.8267-3.771-2.0429-4.2597-4.9807 0.4455 0.1038 1.7369 0.604 2.5462 1.1167-1.2343-1.748-1.4919-1.6824-2.2184-2.0055-1.0213-0.4419-1.9455-1.9661-2.1044-3.7455 0.9739 0.1101 1.0477 0.2873 2.7332 1.1122-2.2979-2.7278-2.1677-1.4187-3.3385-2.6009-0.8414-0.8495-1.2913-2.4367-1.2913-4.0921 1.5058 0.7224 3.3295 0.2634 5.0231 1.2454 1.5018 0.8707 2.0713 1.8706 2.5063 3.7375z"/>
    <path class="fil1" d="m201.07 131.94c0.9037-2.458 3.5147-0.8016 3.5378 1.0517 0.0153 1.2388-0.9967 1.945-1.9144 1.1214-0.3317-0.2977-0.8438-2.2279 0.8924-2.0279-1.0792-1.4455-2.0465 0.1767-1.5722 1.5491 2.0049 5.8011 5.3533 16.876 7.2689 20.199 1.085 1.8823 1.6588 2.5086 7.0015 2.3416 0.3331 0.4975 0.5902 0.767 1.0564 1.1504-1.5616 0.1714-2.8421 0.0227-3.6723 0.0227-3.1397 0-5.057-1.7915-6.0053-4.3161-1.9621-5.224-3.5979-10.481-5.3503-15.737-1.0549-2.8601-1.6869-4.1462-1.2425-5.355z"/>
    <path class="fil1" d="m173.66 140.91v0.1274c0 0.8668-0.6286 1.8192-1.1468 2.1662-0.2205-0.8256-1.8001-2.1793-2.5082-2.554 0.0828-0.9953 1.1883-1.4118 2.5193-1.9628 0.4629 0.627 1.1357 1.66 1.1357 2.2232z"/>
    <path class="fil1" d="m173.21 138.35c5.646-3.1853 12.001-1.3112 15.378 1.7772 1.8935 1.4149 3.4807 3.0549 4.173 5.1745 1.8696 5.7239-3.7484 12.444-10.047 12.444-3.9096 0-5.3108-1.4992-8.164-3.199 0 3.7594 1.6241 3.7753 2.0119 5.2277-2.9602-1.102-6.3431-2.8629-8.0503-5.6775 1.2386-0.6645 2.5342-4.4461-3.0087-4.3923-1.202-0.8049-2.638-2.0146-4.4599-2.1662-0.6606-2.1125 0.0575-3.2791 1.0194-5.097-0.9337-0.448-2.3736-0.6567-3.0582-2.9308-0.8032-3.5813 1.797-7.3776 3.677-9.2575 4.2356-4.2356 11.728-0.7406 17.115-2.3274 4.3069-1.2686 3.9524-4.2982 1.2047-5.8861-3.0289-1.7504-6.7317-1.258-9.5095-3.9362 0.9144 3.2399 8.0731 2.4341 10.066 5.097-1.4342 0.0319-1.9693 1.2477-2.0008 2.6624-1.2086 0.2893-2.2944-0.2298-3.2291-1.7895 0.3742-0.3965 1.1523-0.5149 1.1523-1.2552v-0.3823c-1.4058 0.3544-3.6718 2.4795-4.9695-0.892-3.4285 0-2.0556-2.0929-2.5809-4.4542-1.8183 0-3.2806-1.7975-3.2806-3.5735v-0.8919h0.7645c1.8347 0 4.004 0.7563 4.3325 2.1662 0.6457-0.4905 0.4579-1.7964 0.1274-2.4211 1.2056 0.3219 2.5508 2.1339 3.2781 3.0931 1.1684 1.541 1.5903 2.0932 3.3479 3.0232 0.9786-0.6552 0.2859-1.7506-0.3785-2.328 1.7159 0 3.0551 1.9521 3.1819 3.4749-4.9845 0-8.53-0.5982-11.468-3.8228 1.9606 3.9836 8.3608 4.3699 11.533 4.274 0.7762 1.5953 2.0112 2.9904 4.1402 4.136 0 4.0183-2.9471 5.5911-6.5513 6.3187-8.6972 1.1542-12.11-1.3678-15.067 1.7623-1.5555 1.6466-0.8834 4.8119 1.8484 4.8727-2.0843 1.9329-4.1123 2.8546-4.3973 0.6784 0.057-1.1556 0.3538-1.8665 1.6208-2.2667-4.3766 0.7022-2.242 7.7109 3.1607 2.0113 0.8417-0.8879 1.7296-1.7798 2.5983-2.5128 4.4114-3.7225 10.144-3.1866 15.17-5.2174 1.221-0.4933 2.3506-1.0521 3.2972-1.7998 0.929-0.7339 2.0941-1.7991 2.4016-2.6556 8.2222-0.0138 13.196-6.6893 20.652-6.8872 1.5603 1e-4 3.6917 0.5356 4.5548 2.847-2.1907-2.1203-4.3067-1.4412-4.7035-0.1006-4.8114-0.19-4.4618 3.5109-6.4282 3.5109-1.0101 0.057-1.3244-0.8368-1.4263-1.5671-1.574 1.054-0.7876 4.0152 1.1881 4.2223 0.7247 1.8134 2.4487 2.2071 3.3959 1.0479 0.7727 2.1481 2.6612 3.4345 4.9348 2.7441 0 1.134 0.4762 1.6689 1.4865 2.2088 0.8597 0.4593 0.9111 0.9372 1.2131 1.9478 0.9598 3.2117 0.8196 8.3891 0.8246 11.899-0.0745 2.4449-0.4674 4.5938 0.66 8.1589-3.1593-0.0573-4.7375 0.2012-5.8658-1.8272-2.0947-3.7659-4.3672-11.058-6.5452-18.57 1.3827-0.1331 1.9083-1.482 1.5811-2.6933-0.4284-1.402-1.6576-2.49-3.2939-2.2242-0.7816 0.1754-1.3615 0.8365-1.5057 1.7336-2.8415-3.5859-4.9539-1.9627-8.045-3.4059-0.3055 2.2717 0.1779 4.4012 1.9859 5.99-0.2449 7e-3 -0.6334-0.1151-0.8778-0.2615 0.5429 1.716 1.2918 3.5189 2.7884 4.7167-0.2282-0.0254-0.5835-0.1639-0.7265-0.1901 0.4335 1.2437 0.902 2.8724 0.902 4.2406 0 0.949-0.6799 1.6838-1.6395 1.7098-1.1195-5e-4 -1.3623-0.4415-2.0091-1.2982-0.9919-1.3137-2.0067-2.5083-3.2651-3.5644-2.0465-1.7177-6.1082-3.8555-9.7789-3.8555-3.5164 0-8.7907 1.6677-10.831 4.7146 0 3.1435-2.5128 2.9407-3.1208 3.0874 0 1.8831 1.9922 3.2839 3.6305 3.2839 1.9204 0 2.2023-0.9108 3.5679-1.9114 0.3377 0.4867 0.6755 1.059 1.5517 1.6339 0.8693 0.5704 1.8845 0.9205 2.9081 0.9205 0.4769-1.7863 0.2265-2.1967 1.9127-2.856 1.3434-0.5253 1.5773-1.0005 1.5278-2.3743-0.057-1.5801-1.6723-2.8033-2.9308-2.8033-0.9488 0-1.5945 0.2116-2.3415 0.4618-1.7748 0.5708-1.5363-0.7106-2.3114-1.7504z"/>
    <path class="fil1" d="m179.77 144.17c-0.5818-0.4263-0.9103-2.421-2.3261-2.421-0.9637 0-2.2679 2.0011-2.7816 0.1821-0.299-1.0586 1.2035-1.6689 2.8799-1.8711 2.1383-0.2579 3.4817 2.6981 2.2278 4.11z"/>
    <path class="fil1" d="m172.13 144.83c-0.9637 1.3964-2.123 2.0158-3.1666 1.7974-1.8963-0.3967-2.8706-1.6969-2.8289-2.4489 0.9689 0.0995 2.0475-0.3321 2.2622-0.7311 1.1505 0.3428 2.1941 0.5581 2.5141-1.0767l0.479 0.9453c-0.1596 1.1455-0.9711 1.2611-2.1962 1.5465 0.5767 1.4779 1.9129 0.206 2.9364-0.0325z"/>
    <path class="fil1" d="m177.44 142.36c1.1625 0 1.0235 1.6294 1.9114 1.8665-0.5285 0.7213-2.3316-0.1413-2.3316 3.0169-0.9885-0.192-1.9575-0.4603-2.875-1.3412-0.4971-0.4771-1.3512-1.6203-1.5334-2.3027 2.0015-0.0445 1.4143-0.5803 3.2124 0.6237-0.0938-0.9215 1.065-1.8632 1.6162-1.8632z"/>
    <path class="fil1" d="m159.51 148.05c2.6417 0 3.9124 1.6868 4.6792 3.6168 0.6019 2.727 1.4116 3.8482 3.1952 5.3422 3.9521 3.3105 6.2019 3.8761 12.386 4.8028-0.8811 1.3157-1.7581 1.0189-3.4374 1.0162-2.2799-4e-3 -2.3115-0.0564-4.2081 0.3854v-0.5096c0-0.3637 0.5392-0.6961 0.7646-0.892-1.2061 0-3.8227 0.0665-3.8227-1.1469 0-0.3441 0.0608-0.3513 0.1273-0.6371-1.8772-0.0418-3.5171-1.4982-4.5872-1.7839 0.5028-0.6863 1.3656-0.4001 2.1662-0.3823-1.5935-1.3851-2.5715-0.3851-4.0268-1.4524-1.2505-0.9169-1.8172-1.6738-2.217-3.3897 0.7461-0.0621 1.4699-0.3388 2.1662 0.1274-0.3673-1.3756-2.6726-1.4016-3.8227-1.4016 0-2.7814-1.1301-3.5497-2.1662-5.097 1.5931 0 2.2467 0.3498 2.8033 1.4017z"/>
    <path class="fil1" d="m163.86 149.34c0.4937 0.4606 0.9303 0.8498 1.4525 1.0819-0.2115 0.1378-0.3801 0.2899-0.506 0.5134-0.2584-0.5318-0.5834-1.0635-0.9465-1.5953z"/>
    <path class="fil1" d="m169.07 152.12c0 1.0084-0.7413 1.3058-1.1469 1.9114 3.0087 4.4931 4.6615 4.5207 10.449 7.0083-4.2997 0-13.125-4.5702-13.125-8.41 0-1.2763 0.8078-2.1662 2.0388-2.1662 0.9419 0 1.784 0.7424 1.784 1.6565z"/>
    <path class="fil1" d="m214.56 157.76 3.0555 0.06 0.3872-0.0873c0.912 0 1.7971 0.5955 2.1662 1.1468 1.5574 0 3.6567 0.9066 3.9502 2.1662-2.2976-0.1912-2.4235 1.1982-3.1856 1.4017-0.4674-1.7504-1.2154-2.7563-3.0582-3.1856 0.4677 0.2927 1.0115 0.5044 1.4032 0.878 0.2477 0.2362 0.2868 0.8143 0.1259 1.0333-0.5565-0.0463-0.812-0.2548-1.4017-0.2548-2.3134 0-2.0193 1.2095-2.8033 1.784 0.1464-1.7594 0.1656-2.676-1.9114-2.676 0.4529 0.3937 1.1848 0.5756 1.1848 1.4207 0 0.4674-0.0862 0.8246-0.2928 1.2553-1.3308-0.3101-2.7804-0.8734-4.455-0.8969-1.1241-0.0158-1.5807 0.1698-2.208-0.4679-0.38-0.3861-0.9824-1.1311-0.9824-1.8209 0-0.6879 0.487-0.9872 0.7645-1.4016 0.5648 0.3782 1.743 0.8062 2.7008 0.8062 1.9456 0 2.6443-1.3075 4.5601-1.1612z"/>
    <path class="fil1" d="m181.74 160.88c-0.1494 0.0396-1.2889 0.4036-1.3239 0.4036-0.6535 0-2.0329-0.9836-2.2992-1.3813 1.0661-0.0647 3.2279 0.4383 3.6231 0.9777z"/>
    <path class="fil1" d="m219.51 162.94-3.5276-0.113c0.0386-0.4642 0.2798-1.4675 1.3827-1.6575 1.4105 0 1.4044 0.8227 2.1449 1.7705z"/>
    <path class="fil1" d="m223.48 161.3c0.4966 0 1.0193 0.2719 1.0193 0.7645 0 0.3938-0.3758 0.8445-0.6371 1.0194-0.1506-0.564-0.5681-0.7645-1.2742-0.7645h-0.6371c0.136-0.5096 0.6401-1.0194 1.2742-1.0194h0.2549z"/>
    <polygon class="fil1" points="219.83 161.91 220.17 162.57 219.78 162.57"/>
    <path class="fil1" d="m193.23 162.98c0.5479-0.3544 0.9532 0.0815 1.2157 0.5935l-2.257 0.3616-2.0885 4e-4c0.0193-0.1991 0.1634-0.793 0.5908-0.9209 0.8848-0.2648 1.4485-0.1056 2.539-0.0346z"/>
    <path class="fil1" d="m183.54 162.05c0 0.8695 0.1227 1.2885-0.832 1.2885-0.6478 0-1.4016-0.7538-1.4016-1.4016v-0.3823c1.5717-0.3661 1.1765-0.2235 2.2336 0.4954z"/>
    <path class="fil1" d="m183.69 161.74c-1.7106-1.4869-1.5553-1.7976-4.2069-2.3259-2.0825-0.415-3.635-0.9681-4.0629-3.5188 1.5311 1.7818 5.8738 2.4318 6.7733 2.8471 2.0696 0.9555 2.2118 3.1887 5.3487 3.1887 1.18 0 2.3354-0.9221 3.5545-0.9221 1.0277 0 1.6874 0.8697 2.0547 1.4921l-2.2961-0.0603c-0.747 0.0393-1.2048 0.7349-1.2648 1.4552l-1.4587-0.0286c-0.8435-0.0571-1.6322-0.9073-2.2683-1.1496-1.2969-0.4941-0.9965-0.2961-2.1735-0.9778z"/>
    <path class="fil1" d="m187.19 164.34c-0.3804 0.5884-0.6719 0.8503-1.7423 0.6027-0.4118-0.019-1.0669-1.0062-1.0669-1.4574 0.78-0.5455 2.4922-0.0562 2.8092 0.8547z"/>
    <path class="fil1" d="m182.96 163.72c0.3499 0 0.6737-0.0287 1.0156-0.1083 0.0242 0.4101 0.464 1.2809 0.7968 1.5335-1.5026 0.3583-2.7408 0.9859-3.8353 1.394-1.1553 0.4308-2.9519 1.2584-4.4757 1.2584h-0.1275c-1.1083 0-2.2903-1.0809-2.905-1.6822-1.1023-1.0782 0.1305-2.2679 1.2485-2.2679 0.7785 0 0.9735 0.2548 1.6565 0.2548 1.5381 0 3.3573-1.6565 4.0776-1.6565 1.2272 0 0.2814 1.2742 2.5485 1.2742z"/>
   </g>
  </g>
 </g>
</svg>
